# File created by Blade
# Date/Time:  Wed Sep 24 19:25:39 2014
# Frame Rate: 120.000 fps
#------------------------------------------------------
:FULLY-SPECIFIED
:DEGREES
1328
root -15.171611 32.586443 -3.044559 18.676211 3.098619 1.130985
Spine -25.958014 8.409618 -0.541893
Head 17.719892 -1.039525 5.784128
LeftShoulder -16.247517 29.150395 8.340252
LeftArm 15.448761 25.178923 -73.177018
LeftForeArm 4.207591 -0.000000 32.216220
LeftHand -26.234788 -0.000000 -3.411522
LeftHandThumb1 -26.253704 0.000000 33.147579
RightShoulder -21.646429 6.063838 -22.949127
RightArm -8.367898 -5.355186 68.361681
RightForeArm -7.363258 -0.000000 110.599020
RightHand -9.102011 -0.000000 -11.263172
RightHandThumb1 -24.326973 -0.000000 -32.862282
LeftUpLeg 1.730283 14.313727 5.601932
LeftLeg 99.350722 -0.000000 -0.000000
LeftFoot 35.706051 13.732450 -20.536435
LeftToeBase 14.732501 -0.000000 -0.000000
RightUpLeg -17.993463 7.607617 3.763254
RightLeg 11.867647 -0.000000 -0.000000
RightFoot -14.274340 -1.032817 -13.001080
RightToeBase -6.588010 -0.000000 0.000000
1329
root -15.168496 32.592396 -3.043518 18.608759 3.098517 1.192972
Spine -25.815716 8.472344 -0.669716
Head 17.649790 -1.078197 5.801151
LeftShoulder -16.231883 29.120796 8.368014
LeftArm 15.407605 25.156970 -73.216967
LeftForeArm 4.216225 -0.000000 32.164416
LeftHand -26.468207 -0.000000 -3.309210
LeftHandThumb1 -26.253704 0.000000 33.147579
RightShoulder -21.644611 6.052417 -22.940078
RightArm -8.457865 -5.334559 68.419257
RightForeArm -7.372529 -0.000000 110.631452
RightHand -9.086347 0.000000 -11.284930
RightHandThumb1 -24.326973 -0.000000 -32.862282
LeftUpLeg 1.441068 14.316906 5.335782
LeftLeg 97.433763 -0.000000 -0.000000
LeftFoot 35.448484 14.166347 -20.799994
LeftToeBase 14.088703 -0.000000 -0.000000
RightUpLeg -17.870931 7.617262 3.699256
RightLeg 11.759221 -0.000000 -0.000000
RightFoot -14.233015 -1.054189 -13.060758
RightToeBase -6.528155 -0.000000 0.000000
1330
root -15.166415 32.597980 -3.042298 18.535789 3.099726 1.244557
Spine -25.664077 8.523767 -0.770334
Head 17.602226 -1.102428 5.792372
LeftShoulder -16.217060 29.114919 8.384747
LeftArm 15.370558 25.097646 -73.267026
LeftForeArm 4.134166 -0.000000 32.115824
LeftHand -26.221412 -0.000000 -3.572728
LeftHandThumb1 -26.253704 0.000000 33.147579
RightShoulder -21.635347 6.049549 -22.934521
RightArm -8.513662 -5.374344 68.477728
RightForeArm -7.263977 -0.000000 110.667975
RightHand -9.209711 -0.000000 -11.494636
RightHandThumb1 -24.326973 -0.000000 -32.862282
LeftUpLeg 1.151094 14.396916 5.132995
LeftLeg 95.461255 -0.000000 -0.000000
LeftFoot 35.107429 14.748135 -20.939818
LeftToeBase 14.021009 -0.000000 -0.000000
RightUpLeg -17.745455 7.616784 3.651182
RightLeg 11.653810 -0.000000 -0.000000
RightFoot -14.176510 -1.052931 -13.099918
RightToeBase -6.538084 -0.000000 0.000000
1331
root -15.164084 32.604670 -3.045840 18.502003 3.120675 1.307955
Spine -25.550309 8.549921 -0.871859
Head 17.558294 -1.139111 5.749638
LeftShoulder -16.212473 29.118838 8.371278
LeftArm 15.370430 25.091656 -73.260726
LeftForeArm 4.044192 -0.000000 32.055603
LeftHand -26.367592 -0.000000 -3.278477
LeftHandThumb1 -26.253704 0.000000 33.147579
RightShoulder -21.617204 6.075121 -22.979725
RightArm -8.626735 -5.331105 68.583129
RightForeArm -7.478314 0.000000 110.645347
RightHand -9.130394 -0.000000 -11.406536
RightHandThumb1 -24.326973 -0.000000 -32.862282
LeftUpLeg 0.795466 14.444680 4.928478
LeftLeg 93.461777 -0.000000 -0.000000
LeftFoot 34.544327 15.510095 -21.423082
LeftToeBase 14.730042 -0.000000 -0.000000
RightUpLeg -17.684468 7.582917 3.594217
RightLeg 11.584890 -0.000000 -0.000000
RightFoot -14.119595 -1.042154 -13.127328
RightToeBase -6.578817 -0.000000 0.000000
1332
root -15.160944 32.610889 -3.049666 18.466898 3.140167 1.373043
Spine -25.422318 8.569378 -0.963044
Head 17.494789 -1.162423 5.680757
LeftShoulder -16.224772 29.110819 8.350076
LeftArm 15.366720 25.095979 -73.258602
LeftForeArm 4.023665 -0.000000 31.987258
LeftHand -26.285742 -0.000000 -3.287456
LeftHandThumb1 -26.253704 0.000000 33.147579
RightShoulder -21.592331 6.101463 -23.000507
RightArm -8.696782 -5.348778 68.648713
RightForeArm -7.562395 -0.000000 110.654043
RightHand -9.136927 -0.000000 -11.469573
RightHandThumb1 -24.326973 -0.000000 -32.862282
LeftUpLeg 0.444692 14.512280 4.697992
LeftLeg 91.404912 -0.000000 -0.000000
LeftFoot 34.359193 15.976728 -21.311797
LeftToeBase 14.258627 -0.000000 -0.000000
RightUpLeg -17.625367 7.543226 3.531964
RightLeg 11.522978 -0.000000 -0.000000
RightFoot -14.073854 -1.019933 -13.162198
RightToeBase -6.606389 -0.000000 0.000000
1333
root -15.159045 32.617364 -3.056124 18.446383 3.177827 1.446024
Spine -25.295982 8.572830 -1.057393
Head 17.432510 -1.161313 5.613447
LeftShoulder -16.250650 29.092033 8.309832
LeftArm 15.380421 25.110369 -73.226065
LeftForeArm 3.952961 -0.000000 31.947985
LeftHand -26.345169 0.000000 -3.362240
LeftHandThumb1 -26.253704 0.000000 33.147579
RightShoulder -21.571358 6.147983 -23.030148
RightArm -8.774764 -5.382258 68.713776
RightForeArm -7.570992 0.000000 110.662706
RightHand -9.173640 0.000000 -11.520374
RightHandThumb1 -24.326973 -0.000000 -32.862282
LeftUpLeg 0.059599 14.525814 4.462201
LeftLeg 89.353892 -0.000000 -0.000000
LeftFoot 33.966481 16.589805 -21.664042
LeftToeBase 14.632670 -0.000000 -0.000000
RightUpLeg -17.597318 7.479992 3.472677
RightLeg 11.490795 -0.000000 -0.000000
RightFoot -14.039640 -1.007024 -13.182023
RightToeBase -6.568360 -0.000000 0.000000
